<svg xmlns="http://www.w3.org/2000/svg" width="111" height="30" viewBox="0 0 111 30" fill="none">
    <g>
        <path d="M8.47772 0C7.36096 0 6.2625 0.240297 5.21897 0.665436C4.19374 1.10906 3.26006 1.73752 2.47283 2.55083C1.6856 3.36414 1.06315 4.30684 0.642071 5.36044C0.220997 6.41405 0.00130539 7.54159 0.019613 8.66913V11.5342H6.88496V7.37523C6.88496 7.1719 6.92158 6.98706 6.99481 6.80222C7.06804 6.61738 7.17788 6.45102 7.30604 6.32163C7.43419 6.19224 7.59896 6.08133 7.78203 6.00739C7.96511 5.93346 8.14818 5.89649 8.34957 5.89649H8.60588C8.78895 5.89649 8.99033 5.93346 9.17341 6.00739C9.35649 6.08133 9.52125 6.19224 9.64941 6.32163C9.77756 6.45102 9.88741 6.61738 9.96064 6.80222C10.0339 6.98706 10.0705 7.1719 10.0705 7.37523V18.5028C10.9676 18.5028 11.8646 18.3179 12.7068 17.9667C13.5489 17.6155 14.2995 17.098 14.9403 16.451C15.5811 15.8041 16.0937 15.0277 16.4232 14.1959C16.7711 13.3457 16.9541 12.4399 16.9541 11.5342V8.66913C16.9541 6.37708 16.0754 4.15897 14.4826 2.53235C13.6954 1.71904 12.7617 1.09057 11.7365 0.64695C10.6929 0.221811 9.59448 0 8.47772 0Z" fill="white"/>
        <path d="M8.60563 24.1405H8.34932C8.16624 24.1405 7.96486 24.1035 7.78179 24.0296C7.59871 23.9556 7.45225 23.8447 7.30579 23.7153C7.17764 23.586 7.06779 23.4196 6.99456 23.2348C6.92133 23.0499 6.88471 22.8651 6.88471 22.6617V11.5342C5.98764 11.5342 5.09057 11.719 4.24842 12.0702C3.40627 12.4214 2.65566 12.939 2.01489 13.586C1.37413 14.2329 0.861515 15.0092 0.531979 15.841C0.184135 16.6913 0.0010583 17.597 0.0010583 18.5028V21.3309C-0.0172493 22.4584 0.202442 23.586 0.623517 24.6396C1.04459 25.6932 1.66705 26.6543 2.45428 27.4492C3.2415 28.2625 4.17519 28.8909 5.20042 29.3346C6.22564 29.7782 7.3424 30 8.45917 30C9.57593 30 10.6927 29.7782 11.7179 29.3346C12.7431 28.8909 13.6951 28.2625 14.4641 27.4492C15.2513 26.6359 15.8737 25.6932 16.2948 24.6396C16.7159 23.586 16.9173 22.4584 16.9173 21.3309V18.5028H10.0519V22.6617C10.0519 22.8651 10.0153 23.0499 9.94208 23.2348C9.86885 23.4196 9.75901 23.586 9.63085 23.7153C9.5027 23.8447 9.33793 23.9556 9.15486 24.0296C8.99009 24.1035 8.80701 24.1405 8.60563 24.1405ZM28.6891 8.79852H26.2725V21.2015H33.3392V18.854H28.6707C28.6891 18.8725 28.6891 8.79852 28.6891 8.79852ZM41.065 13.4011C40.7171 12.976 40.2961 12.6248 39.8018 12.403C39.3075 12.1811 38.7582 12.0702 38.2273 12.1072C37.6598 12.1072 37.1105 12.2181 36.5796 12.4584C36.067 12.6987 35.6093 13.0314 35.2249 13.475C34.4193 14.3808 33.98 15.5638 33.98 16.8022C33.98 18.0222 34.4193 19.2052 35.2249 20.1294C35.591 20.5545 36.067 20.9057 36.5796 21.146C37.0922 21.3863 37.6598 21.4972 38.2273 21.4972C39.4539 21.4972 40.4059 21.0721 41.065 20.2033V21.2569H43.3168V12.403H41.065V13.4011ZM40.3876 18.5952C40.1679 18.817 39.8933 19.0019 39.5821 19.1312C39.2892 19.2606 38.9596 19.3161 38.6484 19.2976C38.3372 19.3161 38.0076 19.2421 37.7147 19.1312C37.4218 19.0019 37.1472 18.8355 36.9275 18.5952C36.4881 18.0961 36.2501 17.4677 36.2501 16.8022C36.2501 16.1368 36.4881 15.4898 36.9275 15.0092C37.1472 14.7874 37.4218 14.6026 37.7147 14.4732C38.0076 14.3438 38.3372 14.2884 38.6484 14.3068C38.9779 14.2884 39.2892 14.3623 39.5821 14.4732C39.875 14.6026 40.1496 14.7689 40.3876 15.0092C40.827 15.5083 41.0833 16.1368 41.0833 16.8022C41.065 17.4492 40.827 18.0961 40.3876 18.5952ZM49.1203 18.2994L46.8502 12.3475H44.3787L47.9486 20.9242C47.8022 21.4418 47.5093 21.8854 47.1065 22.2366C46.6854 22.5324 46.1728 22.6617 45.6602 22.6248V24.7505C46.6488 24.8429 47.6557 24.5656 48.4613 23.9741C49.2119 23.4011 49.816 22.4769 50.2737 21.22L53.4592 12.3475H51.0426L49.1203 18.2994ZM58.3474 12.1072C57.7249 12.0887 57.1208 12.1996 56.5532 12.4214C55.9857 12.6433 55.4731 12.9945 55.0337 13.4381C54.1915 14.3438 53.7338 15.5453 53.7338 16.7837C53.7338 18.0222 54.2098 19.2237 55.052 20.1294C55.9308 21.0166 57.0841 21.4603 58.5304 21.4603C60.2147 21.4603 61.478 20.8318 62.3384 19.5564L60.526 18.4843C60.288 18.78 59.995 19.0203 59.6472 19.1682C59.2994 19.3161 58.9332 19.39 58.5671 19.3715C57.2306 19.3715 56.4068 18.817 56.1138 17.708H62.7046C62.7595 17.3937 62.7961 17.0795 62.7961 16.7653C62.8327 15.5268 62.375 14.3253 61.5512 13.4381C61.1484 12.9945 60.6541 12.6433 60.1049 12.4214C59.519 12.1996 58.9332 12.0887 58.3474 12.1072ZM56.0589 15.9519C56.1504 15.4344 56.4434 14.9723 56.8461 14.6396C57.2855 14.3068 57.8164 14.1405 58.3474 14.1775C58.8417 14.1775 59.3177 14.3253 59.7204 14.6211C60.1415 14.9538 60.4344 15.4344 60.5077 15.9704C60.5077 15.9519 56.0589 15.9519 56.0589 15.9519ZM66.5858 13.8817V12.366H64.3339V21.22H66.5858V16.9871C66.5858 16.1368 66.8604 15.5268 67.3913 15.1571C67.9405 14.7874 68.5813 14.6396 69.2404 14.732V12.1811C68.6728 12.1811 68.1236 12.329 67.6293 12.6063C67.135 12.8836 66.7689 13.3457 66.5858 13.8817ZM80.2066 10.7209V8.79852H72.2062V11.146H77.1676L72.0781 19.2606V21.22H80.3165V18.8725H75.1354C75.1171 18.8725 80.2066 10.7209 80.2066 10.7209ZM85.6257 12.1072C85.0032 12.0887 84.3991 12.1996 83.8315 12.4214C83.264 12.6433 82.7514 12.9945 82.312 13.4381C81.4699 14.3438 81.0122 15.5453 81.0122 16.7837C81.0122 18.0222 81.4882 19.2237 82.3303 20.1294C83.2091 21.0166 84.3624 21.4603 85.8087 21.4603C87.493 21.4603 88.7563 20.8318 89.6167 19.5564L87.8043 18.4843C87.5663 18.78 87.2734 19.0203 86.9255 19.1682C86.5777 19.3161 86.2115 19.39 85.8454 19.3715C84.5089 19.3715 83.6851 18.817 83.3921 17.708H89.9829C90.0378 17.3937 90.0744 17.0795 90.0744 16.7653C90.111 15.5268 89.6533 14.3253 88.8295 13.4381C88.4267 12.9945 87.9324 12.6433 87.3832 12.4214C86.8157 12.1996 86.2115 12.0887 85.6257 12.1072ZM83.3372 15.9519C83.4288 15.4344 83.7217 14.9723 84.1245 14.6396C84.5638 14.3068 85.0947 14.1405 85.6257 14.1775C86.12 14.1775 86.596 14.3253 86.9987 14.6211C87.4198 14.9538 87.7127 15.4344 87.786 15.9704L83.3372 15.9519ZM93.8641 13.8817V12.366H91.6123V21.22H93.8641V16.9871C93.8641 16.1368 94.1387 15.5268 94.6696 15.1571C95.2188 14.7874 95.8596 14.6396 96.5187 14.732V12.1811C95.9511 12.1811 95.4019 12.329 94.9076 12.6063C94.4133 12.8836 94.0472 13.3457 93.8641 13.8817ZM101.663 12.1072C100.601 12.1257 99.5944 12.4954 98.7705 13.1978C97.965 13.8817 97.4158 14.8429 97.2144 15.8965C97.013 16.9501 97.1778 18.0407 97.6904 18.9834C98.203 19.9261 99.0085 20.6654 99.9788 21.0721C100.949 21.4787 102.048 21.5157 103.054 21.2015C104.061 20.8872 104.94 20.2218 105.526 19.3346C106.112 18.4473 106.368 17.3752 106.258 16.3031C106.148 15.2311 105.691 14.2329 104.94 13.475C104.519 13.0314 104.006 12.6802 103.439 12.4584C102.871 12.1996 102.267 12.0887 101.663 12.1072ZM103.347 18.5397C103.128 18.7616 102.871 18.9464 102.579 19.0573C102.286 19.1682 101.974 19.2421 101.663 19.2237C101.352 19.2237 101.041 19.1682 100.748 19.0573C100.455 18.9464 100.199 18.7616 99.9788 18.5397C99.5394 18.0592 99.3014 17.4307 99.3014 16.7837C99.3014 16.1368 99.5394 15.5083 99.9788 15.0277C100.199 14.8059 100.455 14.6211 100.748 14.5102C101.041 14.3993 101.352 14.3253 101.663 14.3438C101.974 14.3438 102.286 14.3993 102.579 14.5102C102.871 14.6211 103.128 14.8059 103.347 15.0277C103.787 15.5083 104.025 16.1368 104.025 16.7837C104.025 17.4307 103.787 18.0592 103.347 18.5397ZM111 18.4843H108.254V21.22H111V18.4843Z" fill="white"/>
    </g>
</svg>