<svg xmlns="http://www.w3.org/2000/svg" width="24" height="24" viewBox="0 0 24 24" fill="none">
    <g clip-path="url(#clip0_475_8130)">
        <path d="M5.59798 3.69984L11.9983 0L18.3986 3.69984L15.9986 4.99968L11.9983 2.69952L7.89814 4.99968L5.59798 3.69984ZM18.2978 8.30016L15.9977 7.00032L11.9983 9.30048L7.89814 7.00032L5.59798 8.30016V11.0006L9.5983 13.3008V18.001L11.8985 19.4006L14.1986 18.001V13.4006L18.1989 11.1005V8.30016H18.2978ZM18.2978 15.6998V13.0003L15.9986 14.4V16.9997L18.2978 15.6998ZM19.998 16.6003L15.9977 18.9005V21.6L22.398 17.9002V10.5005L19.998 12V16.6003ZM17.6988 6L19.9989 7.39968V10.1002L22.2991 8.70048V6L19.9989 4.60032L17.6988 6ZM9.5983 19.8998V22.5994L11.8985 23.999L14.1986 22.5994V19.8998L11.8985 21.2995L9.5983 19.8998ZM5.59798 15.6998L7.89814 16.9997V14.3002L5.59798 12.9005V15.6998ZM9.5983 6L11.8985 7.39968L14.2985 6L11.9983 4.60032L9.5983 6ZM3.89782 7.39968L6.29782 6L3.89782 4.60032L1.59862 6V8.69952L3.89878 10.0992V7.39968H3.89782ZM3.89782 12L1.59766 10.6003V18L7.99798 21.6998V19.0003L3.99766 16.7002V12H3.89782Z" fill="#F0B90B"/>
    </g>
    <defs>
        <clipPath id="clip0_475_8130">
            <rect width="24" height="24" fill="white"/>
        </clipPath>
    </defs>
</svg>